<svg width="267" height="90" viewBox="0 0 267 90" fill="none" xmlns="http://www.w3.org/2000/svg">
<path d="M118.616 36.396C116.672 36.396 114.872 36.072 113.216 35.424C111.584 34.752 110.144 33.816 108.896 32.616C107.672 31.416 106.712 30.024 106.016 28.44C105.344 26.832 105.008 25.092 105.008 23.22C105.008 21.324 105.356 19.584 106.052 18C106.772 16.392 107.768 15 109.04 13.824C110.312 12.624 111.788 11.7 113.468 11.052C115.172 10.38 116.984 10.044 118.904 10.044C121.184 10.044 123.248 10.452 125.096 11.268C126.944 12.06 128.444 13.164 129.596 14.58L125.276 18.9C124.412 17.868 123.464 17.1 122.432 16.596C121.4 16.068 120.2 15.804 118.832 15.804C117.44 15.804 116.192 16.116 115.088 16.74C114.008 17.34 113.144 18.192 112.496 19.296C111.848 20.4 111.524 21.696 111.524 23.184C111.524 24.672 111.824 25.98 112.424 27.108C113.048 28.236 113.888 29.112 114.944 29.736C116.024 30.36 117.26 30.672 118.652 30.672C120.044 30.672 121.22 30.408 122.18 29.88C123.164 29.352 123.908 28.584 124.412 27.576C124.94 26.568 125.204 25.368 125.204 23.976L129.56 26.784L117.932 26.496V21.24H131.684V22.212C131.684 25.26 131.132 27.84 130.028 29.952C128.924 32.064 127.388 33.672 125.42 34.776C123.476 35.856 121.208 36.396 118.616 36.396ZM142.989 36.396C141.093 36.396 139.401 36 137.913 35.208C136.449 34.392 135.285 33.288 134.421 31.896C133.557 30.48 133.125 28.896 133.125 27.144C133.125 25.392 133.545 23.832 134.385 22.464C135.249 21.072 136.425 19.98 137.913 19.188C139.401 18.372 141.081 17.964 142.953 17.964C144.825 17.964 146.493 18.372 147.957 19.188C149.445 19.98 150.621 21.072 151.485 22.464C152.349 23.832 152.781 25.392 152.781 27.144C152.781 28.896 152.349 30.48 151.485 31.896C150.645 33.288 149.481 34.392 147.993 35.208C146.529 36 144.861 36.396 142.989 36.396ZM142.953 30.816C143.649 30.816 144.249 30.672 144.753 30.384C145.281 30.072 145.689 29.64 145.977 29.088C146.265 28.536 146.409 27.9 146.409 27.18C146.409 26.46 146.253 25.836 145.941 25.308C145.653 24.756 145.257 24.336 144.753 24.048C144.249 23.736 143.649 23.58 142.953 23.58C142.281 23.58 141.681 23.736 141.153 24.048C140.625 24.36 140.217 24.792 139.929 25.344C139.641 25.872 139.497 26.496 139.497 27.216C139.497 27.912 139.641 28.536 139.929 29.088C140.217 29.64 140.625 30.072 141.153 30.384C141.681 30.672 142.281 30.816 142.953 30.816ZM166.678 36V26.064C166.678 25.248 166.438 24.612 165.958 24.156C165.478 23.676 164.866 23.436 164.122 23.436C163.618 23.436 163.162 23.544 162.754 23.76C162.37 23.976 162.07 24.276 161.854 24.66C161.638 25.044 161.53 25.512 161.53 26.064L159.082 24.912C159.082 23.496 159.394 22.284 160.018 21.276C160.642 20.244 161.494 19.452 162.574 18.9C163.678 18.324 164.926 18.036 166.318 18.036C167.59 18.036 168.718 18.336 169.702 18.936C170.71 19.512 171.502 20.292 172.078 21.276C172.654 22.26 172.942 23.376 172.942 24.624V36H166.678ZM155.266 36V18.396H161.53V36H155.266ZM184.93 36.396C183.034 36.396 181.342 36 179.854 35.208C178.39 34.392 177.226 33.288 176.362 31.896C175.498 30.48 175.066 28.896 175.066 27.144C175.066 25.392 175.486 23.832 176.326 22.464C177.19 21.072 178.366 19.98 179.854 19.188C181.342 18.372 183.022 17.964 184.894 17.964C186.766 17.964 188.434 18.372 189.898 19.188C191.386 19.98 192.562 21.072 193.426 22.464C194.29 23.832 194.722 25.392 194.722 27.144C194.722 28.896 194.29 30.48 193.426 31.896C192.586 33.288 191.422 34.392 189.934 35.208C188.47 36 186.802 36.396 184.93 36.396ZM184.894 30.816C185.59 30.816 186.19 30.672 186.694 30.384C187.222 30.072 187.63 29.64 187.918 29.088C188.206 28.536 188.35 27.9 188.35 27.18C188.35 26.46 188.194 25.836 187.882 25.308C187.594 24.756 187.198 24.336 186.694 24.048C186.19 23.736 185.59 23.58 184.894 23.58C184.222 23.58 183.622 23.736 183.094 24.048C182.566 24.36 182.158 24.792 181.87 25.344C181.582 25.872 181.438 26.496 181.438 27.216C181.438 27.912 181.582 28.536 181.87 29.088C182.158 29.64 182.566 30.072 183.094 30.384C183.622 30.672 184.222 30.816 184.894 30.816ZM106.268 81V55.476H112.712V81H106.268ZM128.217 81V71.064C128.217 70.248 127.977 69.612 127.497 69.156C127.017 68.676 126.405 68.436 125.661 68.436C125.157 68.436 124.701 68.544 124.293 68.76C123.909 68.976 123.609 69.276 123.393 69.66C123.177 70.044 123.069 70.512 123.069 71.064L120.621 69.912C120.621 68.496 120.933 67.284 121.557 66.276C122.181 65.244 123.033 64.452 124.113 63.9C125.217 63.324 126.465 63.036 127.857 63.036C129.129 63.036 130.257 63.336 131.241 63.936C132.249 64.512 133.041 65.292 133.617 66.276C134.193 67.26 134.481 68.376 134.481 69.624V81H128.217ZM116.805 81V63.396H123.069V81H116.805ZM143.085 81L135.921 63.396H142.617L147.189 78.228H144.633L149.169 63.396H155.793L148.629 80.964L143.085 81ZM166.056 81.396C164.088 81.396 162.348 81.012 160.836 80.244C159.324 79.452 158.136 78.36 157.272 76.968C156.408 75.576 155.976 73.98 155.976 72.18C155.976 70.404 156.396 68.832 157.236 67.464C158.076 66.072 159.216 64.98 160.656 64.188C162.12 63.372 163.764 62.964 165.588 62.964C167.364 62.964 168.936 63.348 170.304 64.116C171.696 64.86 172.776 65.904 173.544 67.248C174.336 68.568 174.732 70.08 174.732 71.784C174.732 72.144 174.708 72.516 174.66 72.9C174.636 73.26 174.564 73.68 174.444 74.16L158.928 74.232V70.2L171.96 70.092L169.152 71.856C169.128 70.872 168.984 70.068 168.72 69.444C168.456 68.796 168.072 68.304 167.568 67.968C167.064 67.632 166.428 67.464 165.66 67.464C164.868 67.464 164.184 67.656 163.608 68.04C163.032 68.424 162.588 68.964 162.276 69.66C161.964 70.356 161.808 71.196 161.808 72.18C161.808 73.188 161.976 74.052 162.312 74.772C162.648 75.468 163.128 75.996 163.752 76.356C164.376 76.716 165.144 76.896 166.056 76.896C166.92 76.896 167.676 76.752 168.324 76.464C168.996 76.176 169.596 75.732 170.124 75.132L173.4 78.408C172.536 79.392 171.48 80.136 170.232 80.64C169.008 81.144 167.616 81.396 166.056 81.396ZM188.51 81V71.064C188.51 70.248 188.27 69.612 187.79 69.156C187.31 68.676 186.698 68.436 185.954 68.436C185.45 68.436 184.994 68.544 184.586 68.76C184.202 68.976 183.902 69.276 183.686 69.66C183.47 70.044 183.362 70.512 183.362 71.064L180.914 69.912C180.914 68.496 181.226 67.284 181.85 66.276C182.474 65.244 183.326 64.452 184.406 63.9C185.51 63.324 186.758 63.036 188.15 63.036C189.422 63.036 190.55 63.336 191.534 63.936C192.542 64.512 193.334 65.292 193.91 66.276C194.486 67.26 194.774 68.376 194.774 69.624V81H188.51ZM177.098 81V63.396H183.362V81H177.098ZM200.287 81V56.124H206.551V81H200.287ZM196.399 68.616V63.396H210.439V68.616H196.399ZM221.035 81.396C219.139 81.396 217.447 81 215.959 80.208C214.495 79.392 213.331 78.288 212.467 76.896C211.603 75.48 211.171 73.896 211.171 72.144C211.171 70.392 211.591 68.832 212.431 67.464C213.295 66.072 214.471 64.98 215.959 64.188C217.447 63.372 219.127 62.964 220.999 62.964C222.871 62.964 224.539 63.372 226.003 64.188C227.491 64.98 228.667 66.072 229.531 67.464C230.395 68.832 230.827 70.392 230.827 72.144C230.827 73.896 230.395 75.48 229.531 76.896C228.691 78.288 227.527 79.392 226.039 80.208C224.575 81 222.907 81.396 221.035 81.396ZM220.999 75.816C221.695 75.816 222.295 75.672 222.799 75.384C223.327 75.072 223.735 74.64 224.023 74.088C224.311 73.536 224.455 72.9 224.455 72.18C224.455 71.46 224.299 70.836 223.987 70.308C223.699 69.756 223.303 69.336 222.799 69.048C222.295 68.736 221.695 68.58 220.999 68.58C220.327 68.58 219.727 68.736 219.199 69.048C218.671 69.36 218.263 69.792 217.975 70.344C217.687 70.872 217.543 71.496 217.543 72.216C217.543 72.912 217.687 73.536 217.975 74.088C218.263 74.64 218.671 75.072 219.199 75.384C219.727 75.672 220.327 75.816 220.999 75.816ZM233.313 81V63.396H239.577V81H233.313ZM239.577 71.424L236.769 69.048C237.465 67.056 238.389 65.556 239.541 64.548C240.693 63.54 242.193 63.036 244.041 63.036C244.881 63.036 245.601 63.144 246.201 63.36C246.825 63.576 247.353 63.912 247.785 64.368L244.149 69.228C243.957 69.012 243.681 68.844 243.321 68.724C242.985 68.58 242.601 68.508 242.169 68.508C241.353 68.508 240.717 68.76 240.261 69.264C239.805 69.744 239.577 70.464 239.577 71.424ZM254.178 81.036L247.122 63.396H253.818L258.138 77.904H255.51L259.866 63.396H266.562L259.326 81L254.178 81.036ZM250.002 88.452L255.222 76.968L259.326 81L256.302 88.452H250.002Z" fill="#EFAB1D"/>
<path d="M42.499 5.87333C42.8089 5.6939 43.1911 5.69389 43.5011 5.87333L76.5427 25.0027C76.8516 25.1815 77.0417 25.5113 77.0417 25.8681V64.1317C77.0417 64.4885 76.8516 64.8183 76.5427 64.9971L43.5011 84.1265C43.1912 84.3059 42.8089 84.3059 42.499 84.1265L9.45734 64.9971C9.14852 64.8183 8.95837 64.4885 8.95837 64.1317V25.8681C8.95837 25.5113 9.14852 25.1815 9.45734 25.0027L42.499 5.87333ZM21.1813 26.4962C20.516 26.8814 20.516 27.8419 21.1813 28.2271L42.4994 40.569C42.8093 40.7484 43.1915 40.7484 43.5014 40.5689L64.8191 28.2272C65.4844 27.8421 65.4844 26.8816 64.8191 26.4964L43.5011 14.1544C43.1911 13.975 42.8089 13.975 42.499 14.1544L21.1813 26.4962ZM17.6261 34.4499C16.9594 34.0639 16.125 34.545 16.125 35.3153V59.9998C16.125 60.3566 16.3152 60.6864 16.624 60.8652L37.916 73.1921C38.5827 73.578 39.4171 73.097 39.4171 72.3267V47.6423C39.4171 47.2854 39.2269 46.9556 38.9181 46.7768L17.6261 34.4499ZM46.5837 72.3263C46.5837 73.0966 47.4181 73.5777 48.0848 73.1917L69.3761 60.8652C69.6849 60.6864 69.875 60.3566 69.875 59.9998V35.3156C69.875 34.5453 69.0407 34.0642 68.374 34.4502L47.0827 46.7768C46.7739 46.9556 46.5837 47.2854 46.5837 47.6423V72.3263Z" fill="#EFAB1D"/>
</svg>
